<?xml version="1.0" encoding="utf-8"?>
<!-- Generator: Adobe Illustrator 15.0.0, SVG Export Plug-In . SVG Version: 6.00 Build 0)  -->
<!DOCTYPE svg PUBLIC "-//W3C//DTD SVG 1.1//EN" "http://www.w3.org/Graphics/SVG/1.1/DTD/svg11.dtd">
<svg version="1.1" id="Layer_1" xmlns="http://www.w3.org/2000/svg" xmlns:xlink="http://www.w3.org/1999/xlink" x="0px" y="0px"
	 width="23px" height="22px" viewBox="0 0 23 22" enable-background="new 0 0 23 22" xml:space="preserve">
<g>
	<path fill-rule="evenodd" clip-rule="evenodd" fill="#999999" d="M22,0h-4v2h-2V0H7v2H5V0H1C0.45,0,0,0.45,0,1v2h23V1
		C23,0.45,22.55,0,22,0z"/>
	<path fill-rule="evenodd" clip-rule="evenodd" fill="#999999" d="M2,16h4v4H2V16z M2,11h4v4H2V11z M2,6h4v4H2V6z M7,16h4v4H7V16z
		 M7,11h4v4H7V11z M7,6h4v4H7V6z M12,16h4v4h-4V16z M12,11h4v4h-4V11z M12,6h4v4h-4V6z M17,16h4v4h-4V16z M17,11h4v4h-4V11z M17,6h4
		v4h-4V6z M0,21c0,0.55,0.45,1,1,1h21c0.55,0,1-0.45,1-1V4H0V21z"/>
</g>
</svg>
