<?xml version="1.0" encoding="utf-8"?>
<!-- Generator: Adobe Illustrator 15.0.0, SVG Export Plug-In . SVG Version: 6.00 Build 0)  -->
<!DOCTYPE svg PUBLIC "-//W3C//DTD SVG 1.1//EN" "http://www.w3.org/Graphics/SVG/1.1/DTD/svg11.dtd">
<svg version="1.1" id="Layer_1" xmlns="http://www.w3.org/2000/svg" xmlns:xlink="http://www.w3.org/1999/xlink" x="0px" y="0px"
	 width="16px" height="16px" viewBox="0 0 16 16" enable-background="new 0 0 16 16" xml:space="preserve">
<path fill="#999999" d="M6.33,10.67C3.94,10.67,2,8.721,2,6.33C2,3.94,3.94,2,6.33,2c2.391,0,4.34,1.94,4.34,4.33
	C10.67,8.721,8.721,10.67,6.33,10.67z M15.609,13.721l-3.83-3.82c-0.039-0.051-0.09-0.08-0.139-0.121
	C12.29,8.79,12.67,7.61,12.67,6.33C12.67,2.84,9.83,0,6.33,0C2.84,0,0,2.84,0,6.33c0,3.5,2.84,6.34,6.33,6.34
	c1.28,0,2.46-0.38,3.449-1.029c0.041,0.049,0.07,0.1,0.121,0.139l3.82,3.83C13.98,15.87,14.33,16,14.67,16s0.68-0.13,0.939-0.391
	C16.13,15.09,16.13,14.24,15.609,13.721z"/>
</svg>
